<svg width="227" height="111" viewBox="0 0 227 111" fill="none" xmlns="http://www.w3.org/2000/svg">
<path d="M61 14.6603C61.1588 14.5242 61.3539 14.6038 61.697 14.7527C63.4433 15.5107 65.1186 16.1074 66.8244 16.7662C69.7104 17.8808 72.6727 19.0967 75.7802 20.816C78.4669 22.3025 81.2525 24.2934 84.0126 26.1527C88.7039 29.3129 93.4335 32.3379 98.1927 36.2256C99.3565 37.1763 100.512 38.1831 101.668 39.0764" stroke="#FF9900" stroke-width="3" stroke-linecap="round"/>
<path d="M106.831 35.1132C108.254 38.4047 109.377 42.0338 110.066 45.6094C110.162 46.1091 106.406 44.7635 105.742 44.5631C101.827 43.3821 97.8829 42.5034 93.9692 41.35" stroke="#FF9900" stroke-width="3" stroke-linecap="round"/>
<path d="M119.421 63.1257C116.052 62.998 117.067 63 114.361 63C108.054 63 101.747 63 95.4401 63C87.6288 63 79.8391 63.4965 72.0327 63.6154C64.5087 63.73 57.0613 63.7788 49.5639 64.5122C44.057 65.0508 36.5411 64.4692 31.2516 65.9994C27.8332 66.9883 22.2348 68.3082 18.8967 69.4994C15.6222 70.6679 15.4598 70.4168 12.1576 71.4995C6.54816 73.3385 5.04483 78.0347 2.04898 82.9996C1.48736 89.9997 5.84895 92.7485 10.3327 94.0519C15.1631 95.4562 20.1843 97.2523 25.1242 98.2895C31.7777 99.6864 38.5314 100.659 45.2466 101.753C52.7757 102.98 60.3499 103.704 67.9219 104.637C74.5244 105.451 81.0871 105.924 87.6877 106.677C105.782 108.74 123.868 109.257 142.067 108.892C162.104 108.491 182.022 108.124 201.683 104.074C205.615 103.265 209.266 102.111 212.908 100.523C216.178 99.0966 219.668 97.8562 222.406 95.5992C224.197 94.1229 224.649 90.2247 224.941 88.144C225.444 84.5502 222.654 81.7092 220.267 79.2117C215.558 74.286 208.927 71.7901 202.536 70.9994C199.255 70.5935 194.593 69.4558 191.305 68.9994C181.196 67.5966 178.311 67.5333 171.649 66.4994C167.699 65.8863 156.52 65.0348 152.555 64.5122C146.778 63.7507 124.641 63.602 118.86 63.0813" stroke="#FF9900" stroke-width="3" stroke-linecap="round"/>
</svg>
