<svg width="292" height="106" viewBox="0 0 292 106" fill="none" xmlns="http://www.w3.org/2000/svg">
    <path d="M97 14.7587C97.1588 14.6226 97.3539 14.7022 97.697 14.8511C99.4433 15.6091 101.119 16.2058 102.824 16.8646C105.71 17.9792 108.673 19.1951 111.78 20.9144C114.467 22.4009 117.252 24.3918 120.013 26.2511C124.704 29.4113 129.434 32.4363 134.193 36.324C135.356 37.2747 136.512 38.2815 137.668 39.1748"
          stroke="#35C69F" stroke-width="3" stroke-linecap="round"/>
    <path d="M142.831 35.2116C144.254 38.5031 145.377 42.1322 146.066 45.7078C146.162 46.2075 142.406 44.8618 141.742 44.6615C137.827 43.4805 133.883 42.6018 129.969 41.4484"
          stroke="#35C69F" stroke-width="3" stroke-linecap="round"/>
    <path d="M153.647 57.8596C149.295 57.7319 150.607 57.7339 147.112 57.7339C138.967 57.7339 130.821 57.7339 122.676 57.7339C112.588 57.7339 102.528 58.2304 92.4458 58.3493C82.7288 58.4639 73.1105 58.5127 63.4279 59.246C56.3158 59.7847 46.6091 59.2031 39.7779 60.7333C35.363 61.7222 28.1328 63.0421 23.8217 64.2333C19.5928 65.4018 19.3831 65.1507 15.1183 66.2333C7.87386 68.0724 5.93234 72.7685 2.06326 77.7335C1.33793 84.7336 6.97084 87.4824 12.7616 88.7858C18.9999 90.1901 25.4846 91.9862 31.8645 93.0234C40.4573 94.4203 49.1796 95.3933 57.8522 96.4873C67.5758 97.7138 77.3577 98.4376 87.1368 99.3709C95.6638 100.185 104.139 100.658 112.664 101.411C136.032 103.474 159.39 103.991 182.894 103.626C208.771 103.225 234.494 102.858 259.887 98.8082C264.965 97.9985 269.679 96.8449 274.384 95.2564C278.607 93.8305 283.114 92.5901 286.651 90.3331C288.964 88.8568 289.547 84.9586 289.923 82.8779C290.573 79.2841 286.97 76.443 283.887 73.9456C277.805 69.0199 269.243 66.524 260.989 65.7333C256.751 65.3274 250.73 64.1897 246.483 63.7333C233.428 62.3305 229.702 62.2672 221.098 61.2333C215.997 60.6202 201.56 59.7687 196.439 59.246C188.977 58.4846 160.388 58.3359 152.922 57.8152"
          stroke="#35C69F" stroke-width="3" stroke-linecap="round"/>
</svg>
