<svg width="203" height="103" viewBox="0 0 203 103" fill="none" xmlns="http://www.w3.org/2000/svg">
<path d="M197.16 2C196.661 2 196.431 2.18531 196.041 2.51798C194.053 4.21122 191.944 5.73753 189.875 7.33013C186.376 10.0247 182.896 12.8444 179.933 16.1357C177.372 18.9814 175.415 22.2696 173.3 25.4426C169.705 30.8355 165.83 36.1516 163.241 42.1347C162.608 43.5978 162.077 45.0977 161.37 46.5125" stroke="#F488BA" stroke-width="3" stroke-linecap="round"/>
<path d="M159.565 39.8958C158.587 43.3196 158.062 47.012 158.062 50.5727C158.062 51.0704 162.398 49.0835 163.174 48.7682C167.749 46.9098 172.431 45.3364 177.009 43.5049" stroke="#F488BA" stroke-width="3" stroke-linecap="round"/>
<path d="M106.544 55.5363C103.544 55.4087 104.448 55.4106 102.038 55.4106C96.4232 55.4106 90.8078 55.4106 85.1925 55.4106C78.2379 55.4106 71.3025 55.9071 64.3522 56.026C57.6534 56.1406 51.0227 56.1895 44.3476 56.9228C39.4446 57.4614 32.753 56.8798 28.0436 58.41C25 59.3989 20.0156 60.7188 17.0436 61.91C14.1283 63.0784 13.9837 62.8273 11.0436 63.91C6.04936 65.749 4.71091 70.4451 2.04361 75.41C1.54358 82.41 5.42684 85.1587 9.41888 86.4621C13.7195 87.8663 18.19 89.6624 22.5882 90.6996C28.512 92.0965 34.525 93.0695 40.5038 94.1634C47.2071 95.39 53.9507 96.1138 60.6922 97.047C66.5707 97.8608 72.4136 98.334 78.2903 99.0867C94.4001 101.15 110.503 101.667 126.706 101.302C144.545 100.901 162.279 100.534 179.784 96.4844C183.285 95.6747 186.535 94.5211 189.778 92.9326C192.689 91.5067 195.797 90.2664 198.235 88.0094C199.829 86.5331 200.231 82.6349 200.491 80.5543C200.939 76.9605 198.455 74.1195 196.329 71.6221C192.137 66.6965 186.234 64.2006 180.544 63.41C177.622 63.0041 173.471 61.8663 170.544 61.41C161.544 60.0072 158.975 59.9439 153.044 58.91C149.527 58.2969 139.574 57.4454 136.044 56.9228C130.9 56.1613 111.191 56.0126 106.044 55.4919" stroke="#F488BA" stroke-width="3" stroke-linecap="round"/>
</svg>
