<svg width="1229" height="238" viewBox="0 0 1229 238" fill="none" xmlns="http://www.w3.org/2000/svg">
<g clip-path="url(#clip0_220_155)">
<mask id="mask0_220_155" style="mask-type:alpha" maskUnits="userSpaceOnUse" x="0" y="0" width="1442" height="261">
<rect width="1442" height="261" fill="#D9D9D9"/>
</mask>
<g mask="url(#mask0_220_155)">
<path d="M1335.96 78.9848C1387.14 142.964 1438.33 142.964 1489.51 78.9848L1489.51 490.693L-45.9995 505.088L-45.9995 78.9847C5.18409 15.0051 56.3678 15.0051 107.551 78.9847C158.735 142.964 209.919 142.964 261.102 78.9847C312.286 15.0051 363.47 15.0051 414.653 78.9847C465.837 142.964 517.021 142.964 568.204 78.9847C619.388 15.0052 670.572 15.0052 721.755 78.9847C772.939 142.964 824.122 142.964 875.306 78.9847C926.49 15.0052 977.673 15.0052 1028.86 78.9848C1080.04 142.964 1131.22 142.964 1182.41 78.9848C1233.59 15.0052 1284.78 15.0052 1335.96 78.9848Z" fill="#35C69F"/>
</g>
</g>
<defs>
<clipPath id="clip0_220_155">
<rect width="1229" height="238" fill="white"/>
</clipPath>
</defs>
</svg>
