<svg width="1440" height="261" viewBox="0 0 1440 261" fill="none" xmlns="http://www.w3.org/2000/svg">
<mask id="mask0_219_134" style="mask-type:alpha" maskUnits="userSpaceOnUse" x="-2" y="0" width="1442" height="261">
<rect x="-2" width="1442" height="261" fill="#D9D9D9"/>
</mask>
<g mask="url(#mask0_219_134)">
<path d="M1333.96 78.9848C1385.14 142.964 1436.33 142.964 1487.51 78.9848L1487.51 490.693L-48 505.088L-48 78.9847C3.1836 15.0051 54.3673 15.0051 105.551 78.9847C156.735 142.964 207.918 142.964 259.102 78.9847C310.286 15.0051 361.469 15.0051 412.653 78.9847C463.836 142.964 515.02 142.964 566.204 78.9847C617.387 15.0052 668.571 15.0052 719.755 78.9847C770.938 142.964 822.122 142.964 873.306 78.9847C924.489 15.0052 975.673 15.0052 1026.86 78.9848C1078.04 142.964 1129.22 142.964 1180.41 78.9848C1231.59 15.0052 1282.77 15.0052 1333.96 78.9848Z" fill="#35C69F"/>
</g>
</svg>
